<?xml version="1.0" encoding="utf-8"?>
<!-- Generator: Adobe Illustrator 23.0.1, SVG Export Plug-In . SVG Version: 6.00 Build 0)  -->
<svg version="1.1" id="Layer_1" xmlns="http://www.w3.org/2000/svg" xmlns:xlink="http://www.w3.org/1999/xlink" x="0px" y="0px"
	 viewBox="0 0 450 200" style="enable-background:new 0 0 450 200;" xml:space="preserve">
<style type="text/css">
	.st0{fill:#1E2127;}
	.st1{fill:#56B6C2;stroke:#369999;stroke-width:3;stroke-miterlimit:10;}
	.st2{fill:#E06C75;stroke:#CC485E;stroke-width:3;stroke-miterlimit:10;}
	.st3{fill:#98C379;stroke:#7FA058;stroke-width:3;stroke-miterlimit:10;}
	.st4{fill:#C678DD;stroke:#AC5ECC;stroke-width:3;stroke-miterlimit:10;}
</style>
<g>
	<rect x="0.56" y="0.5" class="st0" width="448.88" height="199"/>
	<path d="M448.88,1v198H1.12V1H448.88 M450,0H0v200h450V0L450,0z"/>
</g>
<g>
	<path class="st1" d="M118.49,142.98h-17.78c-1.58,0-2.87-1.3-2.87-2.87v-41.3c0-1.58,1.3-2.87,2.87-2.87h17.77
		c1.58,0,2.87,1.3,2.87,2.87v41.29C121.36,141.68,120.06,142.98,118.49,142.98z"/>
	<path class="st1" d="M118.49,77.12h-17.78c-1.58,0-2.87-1.3-2.87-2.87V54.91c0-1.58,1.3-2.87,2.87-2.87h17.77
		c1.58,0,2.87,1.3,2.87,2.87v19.33C121.36,75.82,120.06,77.12,118.49,77.12z"/>
</g>
<g>
	<path class="st1" d="M221.39,77.12h-17.77c-1.58,0-2.87-1.3-2.87-2.87V54.91c0-1.58,1.3-2.87,2.87-2.87h17.77
		c1.58,0,2.87,1.3,2.87,2.87v19.33C224.26,75.82,222.96,77.12,221.39,77.12z"/>
	<path class="st1" d="M221.39,142.98h-17.77c-1.58,0-2.87-1.3-2.87-2.87v-41.3c0-1.58,1.3-2.87,2.87-2.87h17.77
		c1.58,0,2.87,1.3,2.87,2.87v41.29C224.26,141.68,222.96,142.98,221.39,142.98z"/>
</g>
<g>
	<path class="st1" d="M156.35,102.4"/>
	<g>
		<path class="st1" d="M165.75,103.06v37.51c0,1.58,1.3,2.87,2.87,2.87h17.77c1.58,0,2.87-1.3,2.87-2.87V77.31
			c0-1.58-1.3-2.87-2.87-2.87h-17.77h-15.16H135.7c-1.58,0-2.87,1.3-2.87,2.87v63.24c0,1.58,1.3,2.87,2.87,2.87h17.77
			c1.58,0,2.87-1.3,2.87-2.87v-37.38v-0.78c0-1.58,1.3-2.87,2.87-2.87h3.66c1.58,0,2.87,1.3,2.87,2.87v0.66L165.75,103.06
			L165.75,103.06z"/>
	</g>
</g>
<path class="st2" d="M290.9,52.02h-19.33h-13.59h-19.33c-1.58,0-2.87,1.3-2.87,2.87v85.19c0,1.58,1.3,2.87,2.87,2.87h19.33h13.59
	h19.33c1.58,0,2.87-1.3,2.87-2.87V54.9C293.77,53.32,292.49,52.02,290.9,52.02z M268.69,115.13c0,1.58-1.3,2.87-2.87,2.87h-2.09
	c-1.58,0-2.87-1.3-2.87-2.87V79.99c0-1.58,1.3-2.87,2.87-2.87h2.09c1.58,0,2.87,1.3,2.87,2.87V115.13z"/>
<path class="st3" d="M359.5,52.02h-19.33h-13.59h-19.33c-1.58,0-2.87,1.3-2.87,2.87v85.19c0,1.58,1.3,2.87,2.87,2.87h19.33h13.59
	h19.33c1.58,0,2.87-1.3,2.87-2.87V54.9C362.37,53.32,361.09,52.02,359.5,52.02z M337.29,115.08c0,1.58-1.3,2.87-2.87,2.87h-2.09
	c-1.58,0-2.87-1.3-2.87-2.87V79.92c0-1.58,1.3-2.87,2.87-2.87h2.09c1.58,0,2.87,1.3,2.87,2.87V115.08z"/>
<g>
	<path class="st4" d="M397.81,115.01c0,1.58,1.3,2.87,2.87,2.87h2.06h14.14c1.58,0,2.87,1.3,2.87,2.87v19.33
		c0,1.58-1.3,2.87-2.87,2.87h-9.62h-12.33H375.6c-1.58,0-2.87-1.3-2.87-2.87V54.9c0-1.58,1.3-2.87,2.87-2.87h19.33
		c1.58,0,2.87,1.3,2.87,2.87v58.91L397.81,115.01L397.81,115.01z"/>
</g>
<g>
	<path class="st1" d="M62.85,60.12c0,1.58-0.94,2.87-2.08,2.87h-5.24c-1.14,0-2.08-1.3-2.08-2.87V59.3v-4.4
		c0-1.58-1.3-2.87-2.87-2.87H32.8c-1.58,0-2.87,1.3-2.87,2.87v85.19c0,1.58,1.3,2.87,2.87,2.87h17.77c1.58,0,2.87-1.3,2.87-2.87
		v-36.83v-1.29c0-1.58,1.3-2.87,2.87-2.87h3.66c1.58,0,2.87,1.3,2.87,2.87v0.94v37.19c0,1.58,1.3,2.87,2.87,2.87h17.77
		c1.58,0,2.87-1.3,2.87-2.87V54.9c0-1.58-1.3-2.87-2.87-2.87H65.72c-1.58,0-2.87,1.3-2.87,2.87v4.44
		C62.85,59.34,62.85,60.12,62.85,60.12z"/>
</g>
</svg>
