<?xml version="1.0" encoding="utf-8"?>
<!-- Generator: Adobe Illustrator 23.0.1, SVG Export Plug-In . SVG Version: 6.00 Build 0)  -->
<svg version="1.1" id="Layer_1" xmlns="http://www.w3.org/2000/svg" xmlns:xlink="http://www.w3.org/1999/xlink" x="0px" y="0px"
	 viewBox="0 0 392.82 94.42" style="enable-background:new 0 0 392.82 94.42;" xml:space="preserve">
<style type="text/css">
	.st0{fill:#56B6C2;stroke:#369999;stroke-width:3;stroke-miterlimit:10;}
	.st1{fill:#E06C75;stroke:#CC485E;stroke-width:3;stroke-miterlimit:10;}
	.st2{fill:#98C379;stroke:#7FA058;stroke-width:3;stroke-miterlimit:10;}
	.st3{fill:#C678DD;stroke:#AC5ECC;stroke-width:3;stroke-miterlimit:10;}
</style>
<g>
	<path class="st0" d="M90.06,92.46H72.28c-1.58,0-2.87-1.3-2.87-2.87v-41.3c0-1.58,1.3-2.87,2.87-2.87h17.77
		c1.58,0,2.87,1.3,2.87,2.87v41.29C92.93,91.16,91.63,92.46,90.06,92.46z"/>
	<path class="st0" d="M90.06,26.6H72.28c-1.58,0-2.87-1.3-2.87-2.87V4.39c0-1.58,1.3-2.87,2.87-2.87h17.77
		c1.58,0,2.87,1.3,2.87,2.87v19.33C92.93,25.3,91.63,26.6,90.06,26.6z"/>
</g>
<g>
	<path class="st0" d="M192.96,26.6h-17.77c-1.58,0-2.87-1.3-2.87-2.87V4.39c0-1.58,1.3-2.87,2.87-2.87h17.77
		c1.58,0,2.87,1.3,2.87,2.87v19.33C195.83,25.3,194.53,26.6,192.96,26.6z"/>
	<path class="st0" d="M192.96,92.46h-17.77c-1.58,0-2.87-1.3-2.87-2.87v-41.3c0-1.58,1.3-2.87,2.87-2.87h17.77
		c1.58,0,2.87,1.3,2.87,2.87v41.29C195.83,91.16,194.53,92.46,192.96,92.46z"/>
</g>
<g>
	<path class="st0" d="M127.92,51.88"/>
	<g>
		<path class="st0" d="M137.32,52.54v37.51c0,1.58,1.3,2.87,2.87,2.87h17.77c1.58,0,2.87-1.3,2.87-2.87V26.79
			c0-1.58-1.3-2.87-2.87-2.87h-17.77h-15.16h-17.76c-1.58,0-2.87,1.3-2.87,2.87v63.24c0,1.58,1.3,2.87,2.87,2.87h17.77
			c1.58,0,2.87-1.3,2.87-2.87V52.65v-0.78c0-1.58,1.3-2.87,2.87-2.87h3.66c1.58,0,2.87,1.3,2.87,2.87v0.66L137.32,52.54
			L137.32,52.54z"/>
	</g>
</g>
<path class="st1" d="M262.47,1.5h-19.33h-13.59h-19.33c-1.58,0-2.87,1.3-2.87,2.87v85.19c0,1.58,1.3,2.87,2.87,2.87h19.33h13.59
	h19.33c1.58,0,2.87-1.3,2.87-2.87V4.38C265.34,2.8,264.06,1.5,262.47,1.5z M240.26,64.61c0,1.58-1.3,2.87-2.87,2.87h-2.09
	c-1.58,0-2.87-1.3-2.87-2.87V29.47c0-1.58,1.3-2.87,2.87-2.87h2.09c1.58,0,2.87,1.3,2.87,2.87V64.61z"/>
<path class="st2" d="M331.07,1.5h-19.33h-13.59h-19.33c-1.58,0-2.87,1.3-2.87,2.87v85.19c0,1.58,1.3,2.87,2.87,2.87h19.33h13.59
	h19.33c1.58,0,2.87-1.3,2.87-2.87V4.38C333.94,2.8,332.66,1.5,331.07,1.5z M308.86,64.56c0,1.58-1.3,2.87-2.87,2.87h-2.09
	c-1.58,0-2.87-1.3-2.87-2.87V29.4c0-1.58,1.3-2.87,2.87-2.87h2.09c1.58,0,2.87,1.3,2.87,2.87V64.56z"/>
<g>
	<path class="st3" d="M369.38,64.49c0,1.58,1.3,2.87,2.87,2.87h2.06h14.14c1.58,0,2.87,1.3,2.87,2.87v19.33
		c0,1.58-1.3,2.87-2.87,2.87h-9.62H366.5h-19.33c-1.58,0-2.87-1.3-2.87-2.87V4.38c0-1.58,1.3-2.87,2.87-2.87h19.33
		c1.58,0,2.87,1.3,2.87,2.87v58.91L369.38,64.49L369.38,64.49z"/>
</g>
<g>
	<path class="st0" d="M34.42,9.6c0,1.58-0.94,2.87-2.08,2.87H27.1c-1.14,0-2.08-1.3-2.08-2.87V8.78v-4.4c0-1.58-1.3-2.87-2.87-2.87
		H4.37c-1.58,0-2.87,1.3-2.87,2.87v85.19c0,1.58,1.3,2.87,2.87,2.87h17.77c1.58,0,2.87-1.3,2.87-2.87V52.74v-1.29
		c0-1.58,1.3-2.87,2.87-2.87h3.66c1.58,0,2.87,1.3,2.87,2.87v0.94v37.19c0,1.58,1.3,2.87,2.87,2.87h17.77c1.58,0,2.87-1.3,2.87-2.87
		V4.38c0-1.58-1.3-2.87-2.87-2.87H37.29c-1.58,0-2.87,1.3-2.87,2.87v4.44C34.42,8.82,34.42,9.6,34.42,9.6z"/>
</g>
</svg>
